<?xml version="1.0" encoding="utf-8"?>
<!-- Generator: Adobe Illustrator 18.0.0, SVG Export Plug-In . SVG Version: 6.00 Build 0)  -->
<!DOCTYPE svg PUBLIC "-//W3C//DTD SVG 1.1//EN" "http://www.w3.org/Graphics/SVG/1.1/DTD/svg11.dtd">
<svg version="1.1" xmlns="http://www.w3.org/2000/svg" xmlns:xlink="http://www.w3.org/1999/xlink" x="0px" y="0px"
	 viewBox="0 0 360 216" enable-background="new 0 0 360 216" xml:space="preserve">
<g id="orig" display="none">
	
		<image display="inline" overflow="visible" width="177" height="99" xlink:href="2C3A4571.png"  transform="matrix(1.435 0 0 1.435 66.333 37.001)">
	</image>
</g>
<g id="font" display="none">
	<rect x="89.4" y="69.8" display="inline" fill="none" width="174.2" height="66.5"/>
	<text transform="matrix(1 0 0 1 89.4197 95.3878)" display="inline"><tspan x="0" y="0" fill="#71AB47" stroke="#71AB47" stroke-miterlimit="10" font-family="'Futura'" font-size="36" letter-spacing="2">Group K</tspan><tspan x="0" y="24" fill="#71AB47" font-family="'Futura'" font-size="18" letter-spacing="32">	</tspan><tspan x="36" y="24" fill="#71AB47" font-family="'Futura'" font-size="18" letter-spacing="1">    </tspan><tspan x="56.7" y="24" fill="#71AB47" stroke="#71AB47" stroke-width="0.5" stroke-miterlimit="10" font-family="'Futura'" font-size="18">Diagnostics</tspan></text>
</g>
<g id="dots" display="none">
	<circle display="inline" fill="#71AB47" cx="247" cy="74.8" r="3.5"/>
	<circle display="inline" fill="#71AB47" cx="247" cy="100.2" r="3.5"/>
	<circle display="inline" fill="#71AB47" cx="253.8" cy="87.5" r="3.5"/>
</g>
<g id="dots_copy">
	<g>
		<circle fill="#71AB47" cx="311.6" cy="61.2" r="6.3"/>
		<circle fill="#71AB47" cx="311.6" cy="106.8" r="6.3"/>
		<circle fill="#71AB47" cx="323.9" cy="84" r="6.3"/>
	</g>
</g>
<g id="font_copy">
	<g>
		<path fill="#71AB47" stroke="#71AB47" stroke-width="1.8" stroke-miterlimit="10" d="M77.1,83.8v1.9c0,13.4-9.5,23.7-23.1,23.7
			c-13.7,0-24.7-11.8-24.7-25.3c0-14.1,11.3-25.6,25.3-25.6c7.6,0,15.1,3.4,19.9,9.5l-4.3,4.1c-3.5-4.8-9.4-8-15.4-8
			C44,64.1,35.4,73,35.4,84c0,10.2,8.4,20,19,20c7.6,0,15.7-6.5,16-14.5H57.8v-5.6H77.1z"/>
		<path fill="#71AB47" stroke="#71AB47" stroke-width="1.8" stroke-miterlimit="10" d="M93,83.1h0.2c1.4-3.6,4.4-5.8,8.3-5.8
			c1.7,0,3.4,0.6,4.8,1.5l-2.7,5.3c-1-0.9-2.2-1.2-3.6-1.2c-6.3,0-7.1,5.8-7.1,10.8v14.9h-5.8V78.1H93V83.1z"/>
		<path fill="#71AB47" stroke="#71AB47" stroke-width="1.8" stroke-miterlimit="10" d="M143.4,93.4c0,9.1-7.1,16.1-16.2,16.1
			s-16.2-7-16.2-16.1s7.1-16.1,16.2-16.1S143.4,84.2,143.4,93.4z M116.8,93.4c0,5.7,4.6,10.6,10.4,10.6c5.8,0,10.4-4.9,10.4-10.6
			c0-5.8-4.6-10.6-10.4-10.6C121.4,82.8,116.8,87.6,116.8,93.4z"/>
		<path fill="#71AB47" stroke="#71AB47" stroke-width="1.8" stroke-miterlimit="10" d="M158.5,78.1v16.8c0,4.9,1.2,9.1,7,9.1
			c5.8,0,7-4.3,7-9.1V78.1h5.8v17.4c0,8.3-3.9,13.9-12.8,13.9c-8.9,0-12.8-5.6-12.8-13.9V78.1H158.5z"/>
		<path fill="#71AB47" stroke="#71AB47" stroke-width="1.8" stroke-miterlimit="10" d="M195.7,83.2h0.1c2.4-3.6,6-6,10.6-6
			c8.7,0,14.3,7.6,14.3,15.9c0,8.7-5.2,16.4-14.5,16.4c-4.3,0-8-2.3-10.3-5.8h-0.1v22.1h-5.8V78.1h5.8V83.2z M214.8,93.3
			c0-5.9-3.6-10.9-9.8-10.9c-6,0-9.6,5.2-9.6,10.9c0,5.7,3.4,11,9.6,11C211.3,104.3,214.8,99.3,214.8,93.3z"/>
		<path fill="#71AB47" stroke="#71AB47" stroke-width="1.8" stroke-miterlimit="10" d="M280.9,59.6h8l-22,22l22.4,26.9h-8.2
			l-18.4-22.7l-2.5,2.3v20.4h-6.1V59.6h6.1v21.2L280.9,59.6z"/>
		<path fill="#71AB47" stroke="#71AB47" stroke-width="0.9" stroke-miterlimit="10" d="M142,127.2h5.1c7.5,0,13.7,4,13.7,12.1
			c0,8.3-6.1,12.3-13.8,12.3h-5V127.2z M145,148.9h1.1c6.2,0,11.6-2.3,11.6-9.4c0-7.1-5.4-9.4-11.6-9.4H145V148.9z"/>
		<path fill="#71AB47" stroke="#71AB47" stroke-width="0.9" stroke-miterlimit="10" d="M169.2,129.5c0,1.1-0.9,2-2,2
			c-1.1,0-2-0.9-2-2c0-1.1,0.9-2,2-2C168.3,127.5,169.2,128.4,169.2,129.5z M168.7,151.7h-2.9v-15.2h2.9V151.7z"/>
		<path fill="#71AB47" stroke="#71AB47" stroke-width="0.9" stroke-miterlimit="10" d="M189.2,151.7h-2.9v-2.4h-0.1
			c-1.2,1.7-3,2.9-5.2,2.9c-4.6,0-7.3-3.9-7.3-8.2c0-4.1,2.8-7.9,7.2-7.9c2.2,0,4.1,1.2,5.3,3h0.1v-2.5h2.9V151.7z M186.4,144.1
			c0-2.9-1.8-5.4-4.9-5.4c-3,0-4.8,2.6-4.8,5.4c0,2.9,1.7,5.5,4.8,5.5C184.7,149.6,186.4,147,186.4,144.1z"/>
		<path fill="#71AB47" stroke="#71AB47" stroke-width="0.9" stroke-miterlimit="10" d="M208.8,151.4c0,5.2-1.5,9-7.4,9
			c-4.2,0-7.3-2.6-7.3-6.9h2.9c0,2.7,1.9,4.3,4.5,4.3c3.6,0,4.3-2.5,4.3-5.6v-2.9h-0.1c-1.2,1.7-3,2.9-5.2,2.9
			c-4.7,0-7.3-3.9-7.3-8.2c0-4.1,2.8-7.9,7.1-7.9c2.3,0,4.1,1.2,5.3,3h0.1v-2.6h2.9V151.4z M206,144.1c0-2.9-1.8-5.4-4.9-5.4
			c-3,0-4.8,2.6-4.8,5.4c0,2.9,1.7,5.5,4.8,5.5C204.3,149.6,206,147,206,144.1z"/>
		<path fill="#71AB47" stroke="#71AB47" stroke-width="0.9" stroke-miterlimit="10" d="M217.1,138.5L217.1,138.5
			c1-1.6,2.8-2.5,4.6-2.5c4.3,0,5.4,2.9,5.4,6.6v9h-2.9V143c0-2.6-0.4-4.3-3.3-4.3c-3.8,0-3.8,3.3-3.8,6.1v7h-2.9v-15.2h2.9V138.5z"
			/>
		<path fill="#71AB47" stroke="#71AB47" stroke-width="0.9" stroke-miterlimit="10" d="M247.6,144.1c0,4.6-3.6,8.1-8.1,8.1
			c-4.5,0-8.1-3.5-8.1-8.1c0-4.6,3.6-8.1,8.1-8.1C244,136,247.6,139.5,247.6,144.1z M234.3,144.1c0,2.9,2.3,5.3,5.2,5.3
			c2.9,0,5.2-2.4,5.2-5.3c0-2.9-2.3-5.3-5.2-5.3C236.6,138.8,234.3,141.2,234.3,144.1z"/>
		<path fill="#71AB47" stroke="#71AB47" stroke-width="0.9" stroke-miterlimit="10" d="M258,140c-0.4-0.7-1.1-1.3-1.9-1.3
			c-0.8,0-1.6,0.6-1.6,1.5c0,1.3,1.7,1.9,3.5,2.7c1.8,0.8,3.5,1.9,3.5,4.3c0,2.9-2.4,5-5.2,5c-2.2,0-4.4-1.3-5.3-3.4l2.5-1.1
			c0.6,1.1,1.4,1.9,2.8,1.9c1.2,0,2.3-0.8,2.3-2.1c0-0.8-0.4-1.2-1.1-1.7l-2.9-1.5c-1.7-0.9-2.9-1.7-2.9-3.8c0-2.5,2-4.4,4.5-4.4
			c1.8,0,3.3,1,4.1,2.7L258,140z"/>
		<path fill="#71AB47" stroke="#71AB47" stroke-width="0.9" stroke-miterlimit="10" d="M269.3,151.7h-2.9v-12.4h-1.6v-2.7h1.6v-5.8
			h2.9v5.8h2.9v2.7h-2.9V151.7z"/>
		<path fill="#71AB47" stroke="#71AB47" stroke-width="0.9" stroke-miterlimit="10" d="M279.4,129.5c0,1.1-0.9,2-2,2
			c-1.1,0-2-0.9-2-2c0-1.1,0.9-2,2-2C278.5,127.5,279.4,128.4,279.4,129.5z M278.9,151.7H276v-15.2h2.9V151.7z"/>
		<path fill="#71AB47" stroke="#71AB47" stroke-width="0.9" stroke-miterlimit="10" d="M296.3,140.8c-1.2-1.3-2.6-2-4.3-2
			c-2.9,0-5.1,2.5-5.1,5.3c0,3.1,2.2,5.4,5.3,5.4c1.7,0,3-0.8,4.1-2v3.7c-1.3,0.7-2.7,1-4.2,1c-4.5,0-8.1-3.4-8.1-8
			c0-4.7,3.6-8.2,8.3-8.2c1.4,0,2.9,0.3,4,1V140.8z"/>
		<path fill="#71AB47" stroke="#71AB47" stroke-width="0.9" stroke-miterlimit="10" d="M307.2,140c-0.4-0.7-1.1-1.3-1.9-1.3
			c-0.8,0-1.6,0.6-1.6,1.5c0,1.3,1.7,1.9,3.5,2.7c1.8,0.8,3.5,1.9,3.5,4.3c0,2.9-2.4,5-5.2,5c-2.2,0-4.4-1.3-5.3-3.4l2.5-1.1
			c0.6,1.1,1.4,1.9,2.8,1.9c1.2,0,2.3-0.8,2.3-2.1c0-0.8-0.4-1.2-1.1-1.7l-2.9-1.5c-1.7-0.9-2.9-1.7-2.9-3.8c0-2.5,2-4.4,4.5-4.4
			c1.8,0,3.3,1,4.1,2.7L307.2,140z"/>
	</g>
</g>
</svg>
